<svg id="SvgjsSvg1075" width="288" height="288" xmlns="http://www.w3.org/2000/svg" version="1.1" xmlns:xlink="http://www.w3.org/1999/xlink" xmlns:svgjs="http://svgjs.com/svgjs"><defs id="SvgjsDefs1076"></defs><g id="SvgjsG1077"><svg xmlns="http://www.w3.org/2000/svg" width="288" height="288" viewBox="0 0 32 32"><g transform="translate(-251.5 -1491.862)" fill="#000000" class="color000 svgShape"><circle cx="267" cy="1508.362" r="13.5" fill="#e9eded" class="colore9eded svgShape"></circle><path fill="#05e6e8" d="m 255.30866,1515.1122 c -1.18487,-2.0523 -1.80865,-4.3803 -1.80865,-6.75 l 0.5,0 3,0 -10e-6,0 c 0,1.7076 0.43726,3.3867 1.27011,4.8774 l 0.0763,0.1476 -2.59808,1.5 z" class="color576d7e svgShape"></path><path fill="#05e6e8" d="m 253.50227,1508.3537 c 2e-5,-2.3698 0.62381,-4.6978 1.80866,-6.75 l 0.43302,0.25 2.59807,1.5 -10e-6,0 c -0.8538,1.4788 -1.31467,3.1516 -1.33875,4.859 l -0.008,0.166 -3.00001,0 z" class="color34485c svgShape"></path><path fill="#05e6e8" d="m 255.31714,1501.5975 c 1.18492,-2.0523 2.88914,-3.7565 4.94135,-4.9413 l 0.25,0.433 1.5,2.598 -10e-6,0 c -1.47881,0.8538 -2.71434,2.0721 -3.58889,3.5387 l -0.0899,0.1397 -2.59809,-1.5 z" class="color60c5b8 svgShape"></path><path fill="#05e6e8" d="m 260.26696,1496.6539 c 2.05232,-1.1849 4.38032,-1.8087 6.74999,-1.8086 l 0,0.5 4e-5,2.9999 -1e-5,0 c -1.70758,0 -3.38673,0.4373 -4.87742,1.2702 l -0.1477,0.076 -1.50001,-2.5981 z" class="color25b39e svgShape"></path><path fill="#05e6e8" d="m 267.02543,1494.8475 c 2.36981,0 4.69782,0.6238 6.74997,1.8087 l -0.25,0.433 -1.49992,2.598 -1e-5,0 c -1.47881,-0.8538 -3.15164,-1.3146 -4.85907,-1.3386 l -0.16591,-0.01 0,-3 z" class="colorfcd062 svgShape"></path><path fill="#05e6e8" d="m 273.78164,1496.6624 c 2.05232,1.1849 3.75653,2.8891 4.9413,4.9413 l -0.43301,0.25 -2.59797,1.5 -10e-6,0 c -0.85379,-1.4788 -2.0721,-2.7143 -3.53878,-3.5888 l -0.13868,-0.092 1.5,-2.5981 z" class="colorf8b84e svgShape"></path><path fill="#09f148" d="m 278.72524,1501.6122 c 1.18491,2.0523 1.8087,4.3803 1.80864,6.75 l -0.5,0 -2.9999,0 -10e-6,0 c -1e-5,-1.7076 -0.43734,-3.3867 -1.27028,-4.8774 l -0.0741,-0.149 2.59809,-1.5 z" class="colorf17f53 svgShape"></path><path fill="#f90000" d="m 280.53162,1508.3707 c 1e-5,2.3698 -0.62377,4.6978 -1.80867,6.75 l -0.43301,-0.25 -2.59799,-1.5 -1e-5,0 c 0.85379,-1.4788 1.3146,-3.1516 1.33861,-4.8591 l 0.0103,-0.1661 3.00001,0 z" class="colorf05542 svgShape"></path><circle cx="267" cy="1509.862" r="1" fill="#2b4255" class="color2b4255 svgShape"></circle><path fill="none" stroke="#2b4255" d="M267.00001 1509.3622l0-8M267.00001 1510.3622l0 2" class="colorStroke2b4255 svgStroke"></path><rect width="11" height="2" x="261.5" y="1515.862" fill="#05e6e8" class="color4bbfeb svgShape"></rect></g></svg></g></svg>